<svg style="display:none">
	<symbol id="Logo" viewBox="0 0 336 102" fill="none" xmlns="http://www.w3.org/2000/svg"><g clip-path="url(#clip0_102_1871)"><path d="M51.5542 50.7037L66.7245 35.7248C67.1055 36.2335 67.4115 36.7498 67.8116 37.1746C68.2116 37.5994 68.7006 37.9377 69.1895 38.3396L54.1514 53.5118H89.2899C90.0291 53.5118 90.659 54.1375 90.9321 55.1384C91.1073 55.7819 90.7034 56.9099 90.1789 57.1732C90.0204 57.2259 89.8524 57.2446 89.6862 57.2279C85.7288 57.2465 81.7706 57.2635 77.8116 57.2788C70.1069 57.3118 62.4022 57.3466 54.6975 57.383C54.493 57.383 54.2898 57.4097 53.952 57.4339C54.8042 58.3102 55.5408 59.119 56.3307 59.8681C58.9546 62.3557 61.5378 64.8852 64.2505 67.2787C66.9277 69.6467 70.1573 70.8689 73.6612 71.487C76.9243 72.0814 80.2297 72.4131 83.5457 72.479C84.2886 72.4904 84.6697 73.083 84.5554 74.0356C84.5133 74.4178 84.3839 74.7852 84.1771 75.1093C83.9702 75.4333 83.6916 75.7052 83.3628 75.9038C81.8388 76.8513 80.2665 77.7161 78.7247 78.6318C76.3117 80.06 74.3953 81.9982 72.8827 84.3433C71.8108 86.0106 70.8304 87.7389 69.7407 89.396C69.3812 89.9159 68.9138 90.3519 68.3704 90.6742C68.0173 90.8878 67.475 90.9285 67.0534 90.8586C66.1822 90.7022 66.1085 90.505 66.0704 89.6161C65.9523 86.8868 65.9726 84.1385 65.6449 81.4335C65.0379 76.4202 63.0491 72.002 59.3406 68.4729C56.5962 65.8607 53.8199 63.279 51.0577 60.6858C50.979 60.634 50.8967 60.5881 50.8113 60.5485C50.9459 74.9551 51.0805 85.008 51.2151 99.379L49.3565 99.7827L47.4978 99.379V60.4874C47.321 60.5842 47.1512 60.6934 46.9898 60.8143C44.0993 63.6122 41.1681 66.3668 38.336 69.2194C35.1076 72.4726 33.4401 76.5206 32.8102 80.9998C32.5562 82.8184 32.5308 84.6701 32.4292 86.5091C32.3606 87.6931 32.3517 88.8797 32.2755 90.0701C32.2579 90.1863 32.2165 90.2977 32.154 90.3972C32.0915 90.4968 32.0093 90.5824 31.9123 90.6487C31.0868 91.1574 30.1622 91.09 29.4993 90.327C28.6755 89.3665 27.9169 88.3519 27.2285 87.29C26.323 85.9165 25.6042 84.4094 24.6199 83.0931C22.7149 80.5496 20.194 78.7106 17.3365 77.3193C16.4898 76.8913 15.6823 76.3895 14.9234 75.8199C14.1957 75.2883 13.7538 74.5608 13.8516 73.5879C13.9379 72.7219 14.1754 72.4891 15.0441 72.4764C19.3253 72.4116 23.5531 71.8952 27.6921 70.7926C30.5953 70.0194 33.0388 68.3762 35.2347 66.3999C38.303 63.6402 41.2799 60.7787 44.2949 57.9592C44.3673 57.8783 44.4352 57.7933 44.4981 57.7048C44.3516 57.6721 44.2031 57.6492 44.0536 57.6361C38.6154 57.5827 33.176 57.5687 27.7378 57.4683C24.352 57.4047 21.1731 58.1779 18.1112 59.54C13.8693 61.4235 10.2714 64.2023 7.07861 67.528C6.55791 68.0697 6.04482 68.2643 5.33489 68.0608C4.62496 67.8573 4.3481 67.2978 4.21983 66.6619C3.88581 64.9844 4.35191 63.3782 4.65544 61.763C5.01231 59.8554 5.52666 57.9706 5.73494 56.049C5.86194 54.8611 5.60794 53.6161 5.42633 52.413C5.02755 49.8503 4.54876 47.2941 4.12838 44.7315C4.04329 44.2062 4.20585 43.6848 4.71132 43.4279C5.21678 43.171 5.78447 42.8658 6.35217 43.3681C7.63614 44.5013 8.91377 45.6433 10.213 46.7599C13.261 49.3785 16.4868 51.6957 20.3616 52.9497C21.6059 53.359 22.909 53.5605 24.2186 53.5461C30.6728 53.4736 37.1282 53.4482 43.5837 53.4049H44.2187C44.1879 53.303 44.143 53.2058 44.0853 53.1163C40.5839 49.4523 36.9212 45.9714 32.668 43.1748C30.128 41.5063 27.4609 40.1086 24.4205 39.6317C23.0883 39.4218 21.7269 39.3964 20.3781 39.2985C18.4807 39.1624 16.5821 39.0441 14.6847 38.8953C14.4562 38.8712 14.2431 38.7688 14.0814 38.6054C13.5912 38.0636 13.7804 36.5107 14.3786 36.0962C16.1172 34.8943 17.8368 33.6594 19.6174 32.5237C22.7797 30.508 25.4594 28.0865 27.0012 24.5574C27.4101 23.6175 27.9994 22.74 28.6065 21.9083C29.0111 21.3703 29.5072 20.9079 30.0721 20.5424C30.7071 20.1253 31.7917 20.4025 32.2476 21.0028C32.3547 21.1785 32.4073 21.3821 32.3987 21.5878C32.4114 22.7744 32.4495 23.9635 32.3987 25.1488C32.292 27.4748 32.8521 29.7271 33.0858 32.0163C33.5074 36.1597 35.7744 39.2412 38.4922 42.0875C41.1694 44.8854 43.9266 47.6158 46.6495 50.3743C46.7765 50.5015 46.92 50.6121 47.1651 50.8245C47.1651 49.5121 47.1562 48.3344 47.1651 47.1567C47.199 42.7912 47.2366 38.4248 47.2781 34.0575C47.3073 30.6542 46.4171 27.4646 45.0277 24.392C43.5811 21.1948 41.4564 18.4669 39.1755 15.8407C38.3881 14.9288 37.6896 13.9381 36.9492 12.9868C36.5605 12.4883 36.5288 11.9516 36.7371 11.3729C36.9911 10.6875 37.2451 10.5959 37.9626 10.7281C40.285 11.1521 42.6134 11.5535 44.9477 11.9325C46.0729 12.1118 47.2095 12.2327 48.3462 12.3217C51.7866 12.5913 55.1115 11.9338 58.3958 10.999C58.9038 10.8553 59.4003 10.6811 59.9032 10.5259C60.0373 10.4685 60.1816 10.439 60.3274 10.4395C61.1758 10.5552 61.9391 12.4908 61.3676 13.1445C60.6056 14.0208 59.8004 14.8665 58.9812 15.6881C56.84 17.8501 54.9452 20.1876 53.5342 22.8977C52.4953 24.8931 51.6292 26.9674 51.285 29.1904C51.0678 30.5983 51.2202 32.0659 51.2342 33.5068C51.2816 38.8254 51.3349 44.1443 51.3942 49.4637C51.3942 49.8643 51.3942 50.2649 51.3942 50.6656L51.5542 50.7037ZM49.2415 23.4598C50.6144 21.1007 52.0851 18.7772 53.1925 16.2108H44.9997L49.2415 23.4598ZM9.65164 51.5176V59.657L17.0405 55.6153L9.65164 51.5176ZM28.7767 29.8251L23.148 35.2822L30.7223 37.2751C30.086 34.8435 29.4409 32.3699 28.7767 29.8251ZM69.6112 81.5467L75.3262 76.059C72.4763 75.9789 70.0392 74.9144 67.5792 73.6642C68.2675 76.3286 68.9228 78.876 69.6112 81.5467ZM30.8036 73.6553C28.355 74.9271 25.8899 75.9585 22.9296 75.9445C24.9679 77.8992 26.8551 79.7102 28.7716 81.5467C29.4599 78.8721 30.1241 76.2943 30.8036 73.6553Z" fill="white"/><path d="M85.6824 28.2073C85.685 29.7903 85.221 31.3389 84.3484 32.6589C83.4759 33.9789 82.2338 35.0116 80.7776 35.6278C79.3215 36.2439 77.7161 36.4159 76.1628 36.1223C74.6094 35.8287 73.1772 35.0825 72.0455 33.9773C70.9138 32.872 70.133 31.4569 69.801 29.9092C69.4691 28.3615 69.6006 26.7502 70.1792 25.277C70.7578 23.8039 71.7577 22.5346 73.0537 21.6281C74.3496 20.7216 75.8839 20.2183 77.4642 20.1812C81.6845 20.0731 85.6888 23.4929 85.6824 28.2073ZM73.2796 28.2073C73.276 28.7852 73.3865 29.3581 73.6046 29.893C73.8228 30.428 74.1443 30.9146 74.5507 31.3249C74.957 31.7351 75.4403 32.061 75.9728 32.2838C76.5053 32.5065 77.0764 32.6218 77.6535 32.6229C80.0449 32.6229 82.0553 30.6148 82.0528 28.2112C82.0528 25.8304 79.9954 23.7956 77.6192 23.8223C76.4643 23.8343 75.3607 24.3022 74.5482 25.1241C73.7357 25.9461 73.2798 27.0559 73.2796 28.2124V28.2073Z" fill="white"/></g><path d="M123.875 65.2004C123.875 67.751 123.248 69.9777 121.993 71.8805C120.738 73.7833 118.916 75.261 116.527 76.3137C114.179 77.3258 111.984 77.5282 108.025 77.5282C106.527 77.5282 106.644 77.7232 103.47 77.5282C100.297 77.3333 97.7114 76.7574 96.7411 76.622C95.7708 76.4867 94.963 76.3137 90.6956 74.8439L92.118 67.9939C94.2518 68.7984 97.1547 69.6336 101.885 70.2408C102.956 70.3783 106.446 70.2408 108.632 70.2408C110.13 70.2408 111.325 70.0384 112.215 69.6336C113.147 69.2287 113.815 68.6821 114.219 67.9939C114.665 67.3056 114.887 66.5161 114.887 65.6255C114.887 64.5324 114.503 63.6012 113.734 62.832C113.005 62.0627 112.013 61.3542 110.758 60.7065C109.503 60.0182 108.066 59.2895 106.446 58.5202C105.434 58.0344 104.341 57.4676 103.167 56.8198C101.993 56.1316 100.859 55.3016 99.766 54.33C98.7134 53.3178 97.843 52.1033 97.1547 50.6863C96.4665 49.2693 96.1223 47.5689 96.1223 45.5851C96.1223 42.994 96.7094 40.7875 97.8835 38.9657C99.098 37.1034 100.798 35.6864 102.985 34.7147C105.211 33.743 107.762 33.2363 110.758 33.2363C113.025 33.2363 113.308 33.2363 116.132 33.8595C118.955 34.4827 123.875 35.7584 123.875 35.7584L121.993 42.9738C118.956 42.2613 116.48 41.7997 115.373 41.577C114.219 41.0846 112.418 40.7395 110.758 40.7395C109.624 40.7395 108.57 40.8619 108.075 41.0846C107.266 41.449 106.163 42.326 105.717 42.9738C105.313 43.6215 105.11 44.3908 105.11 45.2815C105.11 46.2936 105.414 47.164 106.021 47.8928C106.628 48.581 107.539 49.249 108.754 49.8968C109.968 50.5446 111.487 51.3138 113.308 52.2045C115.535 53.2571 117.418 54.3502 118.956 55.4838C120.535 56.6174 121.75 57.9534 122.6 59.4919C123.45 61.0304 123.875 62.9332 123.875 65.2004Z" fill="white"/><path fill-rule="evenodd" clip-rule="evenodd" d="M140.757 70.3526C139.903 70.5381 139.013 70.6309 138.085 70.6309C137.009 70.6309 136.137 70.3526 135.469 69.7959C134.801 69.2021 134.467 68.33 134.467 67.1795V52.5389H141.656C141.78 52.255 141.911 51.9764 142.05 51.7032L142.053 51.6962L142.057 51.6892C143.215 49.4435 144.76 47.595 146.697 46.1997L134.467 46.3041V39.8467H126.784V46.2485L122.22 46.3041V52.5389H126.172V67.1795C126.172 69.7774 126.58 71.8185 127.397 73.303C128.25 74.7503 129.382 75.7709 130.792 76.3647C132.24 76.9585 133.873 77.2554 135.691 77.2554C137.25 77.2554 138.679 77.1069 139.978 76.8101C140.723 76.6651 143.097 75.9751 145.206 75.3289C144.095 74.2895 143.139 73.0791 142.342 71.7054C142.054 71.2102 141.795 70.697 141.562 70.1665C141.294 70.2322 141.025 70.2942 140.757 70.3526ZM144.961 71.0353C145.831 72.3701 146.886 73.492 148.126 74.401C148.428 74.299 148.653 74.2187 148.773 74.1684L144.961 71.0353Z" fill="white"/><path d="M180.583 76.6991H172.288V34.3916H180.583V76.6991Z" fill="white"/><path fill-rule="evenodd" clip-rule="evenodd" d="M169.705 53.8582C169.481 53.2154 169.214 52.6088 168.902 52.0385C167.789 49.9974 166.212 48.4387 164.171 47.3624C162.167 46.2862 159.754 45.748 156.934 45.748C154.076 45.748 151.571 46.3418 149.419 47.5294C147.266 48.717 145.578 50.4984 144.353 52.8735C143.165 55.2116 142.572 58.162 142.572 61.7247C142.572 65.2132 143.24 68.1079 144.576 70.4089C145.912 72.7098 147.749 74.4355 150.087 75.5859C152.425 76.6993 155.115 77.256 158.159 77.256C160.497 77.256 162.482 77.0704 164.115 76.6993C165.022 76.5179 167.444 75.6556 169.705 74.7864V68.4026C167.335 69.3398 164.786 70.2917 163.892 70.5202C162.297 70.8913 160.515 71.0769 158.548 71.0769C156.21 71.0769 154.373 70.4089 153.037 69.0728C151.738 67.7368 151.052 65.8998 150.977 63.5617H169.705V53.8582ZM172.288 73.7615C173.087 73.4325 173.729 73.1538 174.077 72.9797V66.5779C173.698 66.7592 173.063 67.0343 172.288 67.357V73.7615ZM152.982 53.2075C154.058 52.1684 155.394 51.6488 156.99 51.6488C158.289 51.6488 159.365 51.9272 160.218 52.4838C161.072 53.0405 161.703 53.8013 162.111 54.7662C162.556 55.7311 162.779 56.8259 162.779 58.0506H151.144C151.33 55.861 151.942 54.2467 152.982 53.2075Z" fill="white"/><path d="M192.51 76.6991H184.216V34.3916H192.51V76.6991Z" fill="white"/><path fill-rule="evenodd" clip-rule="evenodd" d="M223.715 72.2973C222.74 72.212 221.847 72.1338 221.142 72.0402C220.353 71.9356 219.798 71.8118 219.624 71.6377H218.611L218.949 72.3125L219.624 73.6621L221.142 76.6984C221.539 76.6984 223.584 76.586 225.848 76.2555C225.411 75.7568 225.018 75.2084 224.668 74.6146L224.648 74.5813L224.629 74.5473C224.248 73.8549 223.947 73.1019 223.715 72.2973ZM226.541 72.5683C226.648 72.8266 226.765 73.0713 226.893 73.3025C227.467 74.2765 228.167 75.0572 228.994 75.6447C230.417 75.2786 231.647 74.7965 232.275 74.168C231.387 73.28 229.006 72.8465 226.541 72.5683Z" fill="white"/><path fill-rule="evenodd" clip-rule="evenodd" d="M268.935 53.1664C268.773 52.7759 268.594 52.3999 268.396 52.0385C267.283 49.9974 265.706 48.4387 263.665 47.3624C261.661 46.2862 259.248 45.748 256.428 45.748C253.57 45.748 251.065 46.3418 248.913 47.5294C246.76 48.717 245.072 50.4984 243.847 52.8735C242.659 55.2116 242.066 58.162 242.066 61.7247C242.066 65.2132 242.734 68.1079 244.07 70.4089C245.406 72.7098 247.243 74.4355 249.581 75.5859C251.919 76.6993 254.609 77.256 257.653 77.256C259.991 77.256 261.976 77.0704 263.609 76.6993C264.956 76.4298 269.12 75.4312 271.458 74.6655C270.677 73.7483 270.008 72.7127 269.454 71.5666C269.088 70.8101 268.778 70.0069 268.521 69.1597C266.629 69.6929 264.659 70.1955 263.662 70.4497C263.56 70.4759 263.467 70.4995 263.386 70.5202C261.79 70.8913 260.009 71.0769 258.042 71.0769C255.704 71.0769 253.867 70.4089 252.531 69.0728C251.232 67.7368 250.546 65.8998 250.471 63.5617H267.595C267.561 62.945 267.544 62.3139 267.544 61.6691C267.544 58.4815 267.978 55.6213 268.935 53.1664ZM270.825 68.4762C271.046 69.2066 271.31 69.888 271.616 70.5202C271.952 71.2136 272.333 71.8531 272.759 72.4387V67.7671C272.337 67.9692 271.647 68.2148 270.825 68.4762ZM270.001 63.5617C269.965 62.9522 269.946 62.3213 269.946 61.6691C269.946 60.7552 269.985 59.883 270.061 59.0524C270.065 59.218 270.066 59.3851 270.066 59.5536V63.5617H270.001ZM252.475 53.2075C253.552 52.1684 254.888 51.6488 256.483 51.6488C257.782 51.6488 258.859 51.9272 259.712 52.4838C260.566 53.0405 261.197 53.8013 261.605 54.7662C262.05 55.7311 262.273 56.8259 262.273 58.0506H250.638C250.824 55.861 251.436 54.2467 252.475 53.2075Z" fill="white"/><path d="M303.661 43.0201C303.661 44.5046 303.606 45.9334 303.494 47.3065C303.42 48.6797 303.346 49.6446 303.272 50.2012H303.717C304.385 49.1621 305.164 48.3271 306.055 47.6962C306.946 47.0282 307.929 46.5457 309.006 46.2488C310.119 45.9148 311.288 45.7478 312.513 45.7478C314.702 45.7478 316.613 46.1375 318.246 46.9168C319.879 47.6962 321.141 48.9023 322.032 50.5352C322.96 52.1682 323.423 54.2835 323.423 56.8814V76.6991H315.129V58.9411C315.129 56.7515 314.721 55.1186 313.904 54.0423C313.125 52.929 311.9 52.3723 310.23 52.3723C308.56 52.3723 307.243 52.762 306.278 53.5413C305.35 54.3206 304.682 55.4526 304.274 56.937C303.866 58.4215 303.661 60.24 303.661 62.3925V76.6991H295.367V34.3916H303.661V43.0201Z" fill="white"/><path fill-rule="evenodd" clip-rule="evenodd" d="M292.784 47.1505C292.014 46.8619 291.174 46.5985 290.265 46.3604C288.743 45.9522 286.944 45.748 284.865 45.748C281.933 45.748 279.336 46.3047 277.072 47.4181C274.845 48.5314 273.101 50.2571 271.839 52.5952C270.577 54.9332 269.946 57.9578 269.946 61.669C269.946 65.2689 270.503 68.2193 271.616 70.5202C272.73 72.8211 274.344 74.5283 276.459 75.6416C278.575 76.7179 281.135 77.256 284.142 77.256C286.257 77.256 288.001 77.0704 289.374 76.6993C290.564 76.4176 291.7 75.9643 292.784 75.3394V68.2767C291.711 68.9205 290.611 69.4456 289.486 69.8522C288.15 70.2975 286.609 70.5202 284.865 70.5202C283.492 70.5202 282.323 70.2047 281.358 69.5738C280.393 68.9058 279.651 67.9224 279.131 66.6234C278.649 65.2874 278.408 63.6174 278.408 61.6133C278.408 59.5722 278.63 57.8836 279.076 56.5476C279.558 55.1744 280.282 54.1539 281.247 53.4859C282.212 52.7807 283.418 52.4282 284.865 52.4282C285.979 52.4282 287.092 52.5952 288.205 52.9292C289.356 53.2632 290.58 53.69 291.879 54.2095L292.784 51.8449V47.1505Z" fill="white"/><path d="M208.661 45.6914C212.744 45.6914 215.861 46.5821 218.013 48.3635C220.203 50.1077 221.298 52.7983 221.298 56.4353V76.6983H215.508L213.894 72.5789H213.671C212.818 73.6552 211.927 74.5458 210.999 75.251C210.109 75.9561 209.069 76.4571 207.882 76.754C206.731 77.088 205.303 77.255 203.595 77.255C201.814 77.255 200.2 76.921 198.752 76.253C197.342 75.5479 196.229 74.4902 195.412 73.0799C194.596 71.6326 194.188 69.8141 194.188 67.6245C194.188 64.3958 195.32 62.0206 197.583 60.499C199.847 58.9403 203.243 58.0868 207.771 57.9383L213.059 57.7713V56.4353C213.059 54.8395 212.632 53.6704 211.779 52.9282C210.962 52.186 209.812 51.8149 208.327 51.8149C206.843 51.8149 205.395 52.0375 203.985 52.4829C200.826 53.4806 198.706 54.9613 197.296 55.5922L194.942 49.709C196.575 48.8555 198.472 47.3558 202.426 46.4151C204.43 45.9326 206.509 45.6914 208.661 45.6914ZM209.83 62.7257C207.158 62.8 205.303 63.2824 204.263 64.1731C203.224 65.0638 202.705 66.2328 202.705 67.6802C202.705 68.942 203.076 69.8512 203.818 70.4079C204.56 70.9274 205.525 71.1872 206.713 71.1872C208.494 71.1872 209.997 70.6677 211.222 69.6285C212.447 68.5523 213.059 67.0493 213.059 65.1194V62.6144L209.83 62.7257Z" fill="white"/><path d="M334.651 73.0663C334.651 75.4231 332.741 77.3337 330.384 77.3337C328.027 77.3337 326.117 75.4231 326.117 73.0663C326.117 70.7094 328.027 68.7988 330.384 68.7988C332.741 68.7988 334.651 70.7094 334.651 73.0663Z" fill="white"/><path fill-rule="evenodd" clip-rule="evenodd" d="M330.295 73.0625C330.295 73.065 330.295 73.0663 330.295 73.0663C330.295 73.0662 330.295 73.0676 330.295 73.0701C330.296 73.0726 330.296 73.0758 330.297 73.0796C330.298 73.0873 330.301 73.095 330.304 73.1022C330.31 73.116 330.316 73.1243 330.321 73.1291C330.326 73.134 330.334 73.1406 330.348 73.1464C330.355 73.1494 330.363 73.1519 330.371 73.1534C330.374 73.1542 330.378 73.1547 330.38 73.1549C330.383 73.1552 330.384 73.1552 330.384 73.1552C330.384 73.1552 330.385 73.1552 330.388 73.1549C330.39 73.1547 330.394 73.1542 330.397 73.1534C330.405 73.1519 330.413 73.1494 330.42 73.1464C330.434 73.1406 330.442 73.134 330.447 73.1291C330.452 73.1243 330.458 73.116 330.464 73.1022C330.467 73.095 330.47 73.0873 330.471 73.0796C330.472 73.0758 330.472 73.0726 330.473 73.0701C330.473 73.0676 330.473 73.0662 330.473 73.0663C330.473 73.0663 330.473 73.065 330.473 73.0625C330.472 73.0599 330.472 73.0567 330.471 73.053C330.47 73.0453 330.467 73.0375 330.464 73.0303C330.458 73.0165 330.452 73.0083 330.447 73.0034C330.442 72.9985 330.434 72.992 330.42 72.9861C330.413 72.9831 330.405 72.9807 330.397 72.9791C330.394 72.9783 330.39 72.9779 330.388 72.9776C330.385 72.9774 330.384 72.9774 330.384 72.9774C330.384 72.9774 330.383 72.9774 330.38 72.9776C330.378 72.9779 330.374 72.9783 330.371 72.9791C330.363 72.9807 330.355 72.9831 330.348 72.9861C330.334 72.992 330.326 72.9985 330.321 73.0034C330.316 73.0083 330.31 73.0165 330.304 73.0303C330.301 73.0375 330.298 73.0453 330.297 73.053C330.296 73.0567 330.296 73.0599 330.295 73.0625ZM330.384 77.3337C332.741 77.3337 334.651 75.4231 334.651 73.0663C334.651 70.7094 332.741 68.7988 330.384 68.7988C328.027 68.7988 326.117 70.7094 326.117 73.0663C326.117 75.4231 328.027 77.3337 330.384 77.3337Z" fill="white"/><path fill-rule="evenodd" clip-rule="evenodd" d="M237.581 70.6309C238.508 70.6309 239.399 70.5381 240.253 70.3526C240.521 70.2943 240.789 70.2324 241.057 70.1668C241.289 70.6971 241.549 71.2102 241.836 71.7053C242.603 73.0266 243.517 74.1968 244.574 75.2091C242.61 75.8872 240.265 76.6561 239.473 76.8101C238.174 77.1069 236.746 77.2554 235.187 77.2554C233.368 77.2554 231.736 76.9585 230.288 76.3647C228.878 75.7709 227.746 74.7503 226.892 73.303C226.076 71.8185 225.668 69.7774 225.668 67.1795V52.5389H223.284L221.715 48.2453V46.3041L226.28 46.2485L228.674 39.8467H233.962V46.3041L246.048 46.3041C244.178 47.6868 242.681 49.4991 241.551 51.6891L241.548 51.6961L241.544 51.7031C241.405 51.9763 241.274 52.2549 241.15 52.5389H233.962V67.1795C233.962 68.33 234.296 69.2021 234.964 69.7959C235.632 70.3526 236.504 70.6309 237.581 70.6309ZM244.958 71.755C245.657 72.6904 246.458 73.5077 247.363 74.2068C247.399 74.1926 247.43 74.1797 247.457 74.1684L244.958 71.755ZM251.966 46.3041H252.597L245.015 50.9764C246.078 49.5251 247.378 48.3759 248.913 47.5288C249.862 47.0051 250.88 46.5969 251.966 46.3041Z" fill="white"/><path d="M329.571 34.7529H330.731L332.748 39.6786H332.822L334.84 34.7529H336V41.0894H335.09V36.5041H335.032L333.163 41.0802H332.408L330.539 36.501H330.48V41.0894H329.571V34.7529Z" fill="white"/><path d="M324.367 35.5759V34.7529H329.271V35.5759H327.294V41.0894H326.341V35.5759H324.367Z" fill="white"/><defs><clipPath id="clip0_102_1871"><rect width="94.2152" height="93.3587" fill="white" transform="translate(0 7.70898)"/></clipPath></defs></symbol>

	<symbol id="anstronomic1" viewBox="0 0 54 60" fill="none" xmlns="http://www.w3.org/2000/svg"><path d="M27.0001 22.917C23.0901 22.917 19.9167 26.0903 19.9167 30.0003C19.9167 33.9103 23.0901 37.0837 27.0001 37.0837C30.9101 37.0837 34.0834 33.9103 34.0834 30.0003C34.0834 26.0903 30.9101 22.917 27.0001 22.917ZM27.0001 34.2503C24.6484 34.2503 22.7501 32.352 22.7501 30.0003C22.7501 27.6487 24.6484 25.7503 27.0001 25.7503C29.3517 25.7503 31.2501 27.6487 31.2501 30.0003C31.2501 32.352 29.3517 34.2503 27.0001 34.2503Z" fill="#FFCB4F"/><path d="M42.9517 20.792C41.9317 19.007 39.7784 18.2703 37.9084 18.8937C34.99 16.0603 31.1084 14.417 27 14.417C18.415 14.417 11.4167 21.4153 11.4167 30.0003C11.4167 31.332 11.6434 32.607 11.955 33.882C10.4534 35.1853 10.0284 37.4237 11.0484 39.2087C11.8417 40.5687 13.2584 41.3337 14.7317 41.3337C15.185 41.3337 15.6667 41.2203 16.12 41.0787C17.99 42.9203 20.3134 44.252 22.835 44.9603C23.2034 46.9153 24.9317 48.417 27 48.417C29.0684 48.417 30.7967 46.9153 31.165 44.9603C37.8234 43.0903 42.5834 37.027 42.5834 30.0003C42.5834 28.6687 42.3567 27.3937 42.045 26.1187C43.5467 24.8153 43.9717 22.577 42.9517 20.792ZM40.4867 22.2087C40.8834 22.8887 40.6567 23.767 39.9767 24.1353C39.2967 24.532 38.4184 24.3053 38.05 23.6253C37.6817 22.9737 37.88 22.1803 38.475 21.7553C38.5034 21.727 38.5317 21.727 38.56 21.6987L38.5884 21.6703C38.7867 21.557 39.0417 21.5003 39.2684 21.5003C39.75 21.5003 40.2317 21.7553 40.4867 22.2087ZM13.5134 37.792C13.1167 37.112 13.3434 36.262 14.0234 35.8653C14.25 35.7237 14.4767 35.667 14.7317 35.667C14.845 35.667 14.9867 35.667 15.1 35.7237C15.4684 35.837 15.78 36.0637 15.95 36.3753C16.3184 37.027 16.12 37.8203 15.525 38.2453C15.4967 38.2737 15.4684 38.2737 15.44 38.302L15.4117 38.3303C14.7317 38.6987 13.8817 38.472 13.5134 37.792ZM27 45.5837C26.2067 45.5837 25.5834 44.9603 25.5834 44.167C25.5834 43.3737 26.2067 42.7503 27 42.7503C27.7934 42.7503 28.4167 43.3737 28.4167 44.167C28.4167 44.9603 27.7934 45.5837 27 45.5837ZM30.7117 42.1553C30.0034 40.8237 28.615 39.917 27 39.917C25.385 39.917 23.9967 40.8237 23.2884 42.1553C21.4467 41.5887 19.7467 40.597 18.3584 39.2937C19.1517 38.0187 19.2367 36.347 18.4434 34.9587C17.8767 33.967 16.97 33.2587 15.865 32.9753C15.44 32.862 15.015 32.8337 14.6184 32.862C14.3917 31.927 14.25 30.9637 14.25 30.0003C14.25 22.9737 19.9734 17.2503 27 17.2503C30.2584 17.2503 33.29 18.5537 35.6417 20.7353C34.8767 22.0103 34.7917 23.6537 35.585 25.042C36.3784 26.402 37.795 27.167 39.2684 27.167C39.2967 27.167 39.3534 27.167 39.3817 27.1387C39.6084 28.0737 39.75 29.0087 39.75 30.0003C39.75 35.6387 36.01 40.5403 30.7117 42.1553Z" fill="#FFCB4F"/><path d="M31.1084 3.45167C30.6267 1.61 28.9834 0.25 27 0.25C25.0167 0.25 23.3734 1.61 22.8917 3.45167C16.29 4.44333 10.2834 7.92833 6.06171 13.17C5.35337 12.9717 4.56004 12.9433 3.82337 13.1417C2.71837 13.425 1.81171 14.1333 1.24504 15.125C0.253374 16.825 0.593374 18.95 1.95337 20.2817C0.735041 23.3417 0.083374 26.6567 0.083374 30C0.083374 43.3733 9.80171 54.565 22.8917 56.5483C23.175 57.625 23.855 58.5883 24.875 59.155C25.555 59.5517 26.2634 59.7217 27 59.7217C28.4734 59.7217 29.89 58.9567 30.6834 57.5967C30.8817 57.2567 30.995 56.8883 31.1084 56.52C38.0784 55.4717 44.4534 51.675 48.6467 45.9233C49.8367 44.3367 50.8284 42.6367 51.65 40.7667C53.1234 37.4233 53.9167 33.6833 53.9167 29.9717C53.9167 16.6267 44.17 5.435 31.1084 3.45167ZM27 3.08333C27.765 3.08333 28.3884 3.70667 28.4167 4.47167V4.52833V4.585C28.36 5.32167 27.765 5.91667 27 5.91667C26.235 5.91667 25.64 5.32167 25.6117 4.585V4.52833C25.6117 4.5 25.6117 4.5 25.5834 4.47167C25.6117 3.70667 26.235 3.08333 27 3.08333ZM3.68171 16.5417C3.88004 16.2017 4.16337 15.975 4.53171 15.89C4.67337 15.8617 4.78671 15.8333 4.92837 15.8333C5.18337 15.8333 5.41004 15.89 5.63671 16.0317C6.31671 16.4283 6.54337 17.2783 6.14671 17.9583C5.94837 18.2983 5.66504 18.525 5.29671 18.61C4.92837 18.7233 4.56004 18.6667 4.24837 18.4967H4.22004H4.19171C3.54004 18.0717 3.31337 17.2217 3.68171 16.5417ZM28.2184 56.2083C27.8217 56.8883 26.9717 57.115 26.2917 56.7183C25.6117 56.3217 25.385 55.4717 25.7817 54.7917C26.1784 54.1117 27.0284 53.885 27.7084 54.2817C28.3884 54.6783 28.615 55.5283 28.2184 56.2083ZM49.0434 39.6617C48.3067 41.3333 47.4567 42.835 46.38 44.2517C42.64 49.3517 37.03 52.7517 30.8534 53.715C30.485 52.95 29.9184 52.27 29.125 51.8167C27.1134 50.655 24.4784 51.335 23.3167 53.375C23.26 53.4883 23.2034 53.63 23.1467 53.7433C11.53 51.8733 2.91671 41.9 2.91671 30C2.91671 27.0817 3.48337 24.135 4.53171 21.4433C4.64504 21.4717 4.78671 21.5 4.90004 21.5C5.26837 21.5 5.63671 21.4433 6.00504 21.3583C7.11004 21.075 8.01671 20.3667 8.58337 19.375C9.43337 17.9017 9.29171 16.1167 8.35671 14.8133C12.0684 10.2233 17.3384 7.19167 23.1184 6.285C23.8267 7.73 25.3 8.75 27 8.75C28.7 8.75 30.1734 7.73 30.8534 6.25667C42.47 8.12667 51.0834 18.1 51.0834 30C51.0834 33.3433 50.375 36.6583 49.0434 39.6617Z" fill="#FFCB4F"/></symbol>
	<symbol id="anstronomic2" viewBox="0 0 54 57" fill="none" xmlns="http://www.w3.org/2000/svg"><path d="M44.9634 34.0513C44.9917 34.023 44.9634 33.9947 44.9917 33.938C45.02 33.8247 45.0484 33.683 45.0767 33.5697V33.4847C45.3034 32.3513 45.4167 31.1897 45.4167 29.9997C45.4167 19.8563 37.1434 11.583 27 11.583C16.8567 11.583 8.58337 19.8563 8.58337 29.9997C8.58337 32.663 9.15004 35.1847 10.17 37.4513C10.1984 37.4797 10.1984 37.5363 10.2267 37.5647C11.4167 40.1713 13.1734 42.4663 15.3834 44.2797C15.44 44.3363 15.525 44.393 15.61 44.4497C18.755 46.943 22.6934 48.4163 27 48.4163C35.755 48.4163 43.0934 42.268 44.9634 34.0513ZM42.2717 26.9113C40.9684 26.968 39.8634 26.713 39.325 26.1747C36.4634 23.313 33.4884 20.338 27.6234 17.4197C26.2067 16.7113 25.3567 15.7763 25.0167 14.558C25.6684 14.473 26.32 14.4163 27 14.4163C34.5367 14.4163 40.8267 19.7997 42.2717 26.9113ZM14.25 27.1663C14.25 29.4897 13.0884 31.898 11.8984 33.768C11.5867 32.578 11.4167 31.303 11.4167 29.9997C11.4167 27.563 11.9834 25.2963 12.975 23.228C13.6834 24.2763 14.25 25.5797 14.25 27.1663ZM13.1167 37.0263C15.0434 34.448 17.0834 30.8497 17.0834 27.1663C17.0834 24.3047 15.865 22.123 14.59 20.6213C16.5167 18.0997 19.18 16.1447 22.2684 15.153C22.6934 16.8247 23.77 18.6097 26.3767 19.9413C31.845 22.6613 34.5084 25.353 37.3417 28.1863C38.39 29.2347 39.9767 29.773 41.9034 29.773C42.13 29.773 42.3567 29.7163 42.5834 29.7163C42.5834 29.8297 42.6117 29.9147 42.6117 30.028C42.6117 30.5947 42.5834 31.133 42.5267 31.6713C39.5517 31.048 36.605 32.0113 33.5167 33.088C30.655 34.0797 27.68 35.0713 24.195 35.0713C20.3984 35.0713 17.48 37.1113 15.8084 40.7947C14.7034 39.6613 13.7967 38.3863 13.1167 37.0263ZM27 45.583C23.6567 45.583 20.5684 44.5063 18.0184 42.7213C19.18 39.5197 21.2484 37.8763 24.1667 37.8763C28.1334 37.8763 31.4484 36.743 34.395 35.723C37.3134 34.7313 39.6934 33.9097 41.9317 34.4197C40.0334 40.8513 34.055 45.583 27 45.583Z" fill="#FFCB4F"/><path d="M31.1084 3.45167C30.6267 1.61 28.9834 0.25 27 0.25C25.0167 0.25 23.3734 1.61 22.8917 3.45167C9.83004 5.435 0.083374 16.6267 0.083374 30C0.083374 44.8467 12.1534 56.9167 27 56.9167C32.9217 56.9167 38.645 54.9333 43.2917 51.3633C43.9434 51.7317 44.6234 51.9583 45.3317 51.9583C46.4367 51.9583 47.57 51.5333 48.3917 50.655C49.185 49.8333 49.61 48.7567 49.5817 47.6233C49.5817 46.8583 49.3267 46.1217 48.93 45.47C52.16 40.9083 53.8884 35.5817 53.8884 29.9717C53.9167 16.6267 44.17 5.435 31.1084 3.45167ZM27 3.08333C27.765 3.08333 28.3884 3.70667 28.4167 4.47167V4.52833V4.585C28.36 5.32167 27.765 5.91667 27 5.91667C26.235 5.91667 25.64 5.32167 25.6117 4.585V4.52833C25.6117 4.5 25.6117 4.5 25.5834 4.47167C25.6117 3.70667 26.235 3.08333 27 3.08333ZM2.91671 30C2.91671 18.1 11.53 8.12667 23.1467 6.25667C23.8267 7.73 25.3 8.75 27 8.75C28.7 8.75 30.1734 7.73 30.8534 6.25667C42.47 8.12667 51.0834 18.1 51.0834 30C51.0834 34.9867 49.5817 39.69 46.7484 43.7417C45.2184 43.2033 43.49 43.5433 42.3 44.7617C41.11 45.98 40.8267 47.7367 41.4217 49.2383C37.3134 52.355 32.2417 54.0833 27.0284 54.0833C13.7117 54.0833 2.91671 43.2883 2.91671 30ZM46.3517 48.7C45.8134 49.2667 44.935 49.2667 44.3684 48.7567C44.3684 48.7567 44.3684 48.7283 44.34 48.7L44.3117 48.6717C43.8017 48.1333 43.8017 47.2833 44.3117 46.7167C44.595 46.4333 44.9634 46.2917 45.3317 46.2917C45.7 46.2917 46.04 46.4333 46.3234 46.6883C46.6067 46.9433 46.7484 47.3117 46.7484 47.68C46.7767 48.0767 46.635 48.4167 46.3517 48.7Z" fill="#FFCB4F"/></symbol>
	<symbol id="anstronomic3" viewBox="0 0 68 68" fill="none" xmlns="http://www.w3.org/2000/svg"><path d="M17.3117 44.4264L13.0334 50.1497C12.5517 50.773 12.6934 51.6514 13.3167 52.133C13.5717 52.3314 13.8834 52.4164 14.1667 52.4164C14.5917 52.4164 15.0167 52.218 15.3001 51.8497L16.1784 50.6597C19.4084 52.813 23.0634 54.2864 26.9167 54.8814V60.888H22.6667C21.8734 60.888 21.2501 61.5114 21.2501 62.3047C21.2501 63.098 21.8734 63.7214 22.6667 63.7214H45.3334C46.1268 63.7214 46.7501 63.098 46.7501 62.3047C46.7501 61.5114 46.1268 60.888 45.3334 60.888H41.0834V53.2947C51.0284 49.328 58.0834 39.638 58.0834 28.3047C58.0834 20.258 54.5417 12.8347 48.3934 7.67803L49.3001 6.51636C49.7817 5.89303 49.6401 5.01469 49.0168 4.53303C48.3934 4.05136 47.5151 4.19303 47.0334 4.81636L45.3617 7.05469C45.3617 7.05469 45.3334 7.05469 45.3334 7.08303V7.11136L42.7551 10.5397C39.4117 8.35803 35.4451 7.08303 31.1667 7.08303C27.9934 7.08303 24.9901 7.79136 22.2984 9.06636C22.1851 9.09469 22.1001 9.12303 22.0151 9.17969C15.7817 12.1547 11.2484 18.0764 10.2001 25.1314C10.2001 25.1597 10.2001 25.188 10.1717 25.2164C10.0301 26.2364 9.91675 27.2847 9.91675 28.333C9.91675 34.7647 12.8067 40.5164 17.3117 44.4264ZM12.7501 28.333C12.7501 27.7664 12.7784 27.1997 12.8351 26.6614C15.2434 26.293 18.2467 26.378 19.8617 27.6814C20.7967 28.418 21.2501 29.5797 21.2501 31.1664C21.2501 39.0714 23.7151 40.573 28.4467 42.783C29.0984 43.0947 29.7784 43.4064 30.5434 43.7747C32.1017 44.5397 33.0934 45.418 33.2634 46.1547C33.3201 46.3247 33.2917 46.4947 33.2351 46.6364C32.5551 46.7214 31.8467 46.7497 31.1667 46.7497C21.0234 46.7497 12.7501 38.4764 12.7501 28.333ZM38.2501 60.9164H29.7501V55.193C30.2317 55.2214 30.6851 55.2497 31.1667 55.2497C33.6317 55.2497 35.9834 54.8814 38.2501 54.2864V60.9164ZM46.6934 10.0014C52.1334 14.5914 55.2501 21.193 55.2501 28.333C55.2501 41.6214 44.4551 52.4164 31.1667 52.4164C26.3784 52.4164 21.8451 50.9714 17.9067 48.3647L19.5784 46.1264C22.9217 48.308 26.8884 49.583 31.1667 49.583C34.9634 49.583 38.5334 48.563 41.6217 46.8064H41.6501C41.6784 46.8064 41.7067 46.778 41.7351 46.7497C48.1101 43.0664 52.4167 36.2097 52.4167 28.333C52.4167 25.6414 51.9067 23.0914 51.0001 20.7397C50.9717 20.6547 50.9434 20.598 50.9151 20.513C49.6401 17.3114 47.6001 14.478 45.0217 12.2397L46.6934 10.0014ZM43.1517 38.108L43.4351 37.9664C45.0784 37.1447 46.6651 36.323 48.1384 35.5297C46.8067 38.703 44.5684 41.3947 41.8201 43.378C40.9984 40.7147 41.4234 38.958 43.1517 38.108ZM47.8267 20.513C46.2684 21.4764 44.7668 21.873 43.5767 21.618C42.5001 21.363 41.6501 20.5697 40.9701 19.2097C38.4767 14.1947 35.4734 14.6764 32.3001 15.1864C31.1101 15.3847 29.8067 15.583 28.3334 15.583C25.9817 15.583 24.9051 13.4014 24.4234 11.2197C26.5201 10.398 28.7867 9.91636 31.1667 9.91636C38.5334 9.91636 44.8517 14.2514 47.8267 20.513ZM21.8167 12.4947C22.8651 16.2914 25.1884 18.4164 28.3334 18.4164C30.0334 18.4164 31.4501 18.1897 32.6967 17.9914C35.7001 17.5097 36.8334 17.3114 38.3917 20.4564C39.4684 22.5814 40.9984 23.913 42.8967 24.338C43.3784 24.4514 43.8884 24.508 44.3417 24.508C46.0134 24.508 47.5718 23.8847 48.8184 23.1764C49.3284 24.8197 49.5834 26.548 49.5834 28.333C49.5834 29.4097 49.4701 30.4864 49.3001 31.5347C47.3451 32.8097 44.8517 34.0847 42.1601 35.4164L41.8767 35.558C39.9784 36.5214 37.3151 38.9864 39.3551 44.7947C38.3351 45.3047 37.2301 45.7297 36.0967 46.0414C36.0684 45.843 36.0684 45.6447 36.0117 45.4464C35.6151 43.8314 34.1984 42.3864 31.7901 41.1964C31.0251 40.7997 30.2884 40.488 29.6367 40.1764C25.4717 38.278 24.0834 37.6264 24.0834 31.1664C24.0834 28.7014 23.2617 26.7747 21.6467 25.4714C19.2667 23.5447 15.7534 23.488 13.3734 23.743C14.5917 18.9547 17.6801 14.9314 21.8167 12.4947Z" fill="#FFCB4F"/></symbol>
	<symbol id="anstronomic4" viewBox="0 0 54 60" fill="none" xmlns="http://www.w3.org/2000/svg"><path d="M52.7549 15.125C50.9416 11.98 46.4366 10.7333 40.1182 11.64C39.1832 11.7817 38.2199 11.98 37.2282 12.1783C34.9616 4.925 31.2499 0.25 26.9999 0.25C22.7499 0.25 19.0382 4.925 16.7432 12.1783C15.7516 11.98 14.7882 11.7817 13.8532 11.64C7.5349 10.7333 3.05823 11.98 1.2449 15.125C-0.568438 18.27 0.593229 22.775 4.53156 27.79C5.09823 28.5267 5.7499 29.2633 6.4299 30C5.7499 30.7367 5.09823 31.4733 4.53156 32.21C0.593229 37.225 -0.596771 41.73 1.2449 44.875C2.6899 47.3683 5.7499 48.6433 10.0566 48.6433C11.2466 48.6433 12.4932 48.5583 13.8532 48.36C14.7882 48.2183 15.7516 48.02 16.7432 47.8217C19.0382 55.075 22.7499 59.75 26.9999 59.75C31.2499 59.75 34.9616 55.075 37.2566 47.8217C38.2482 48.0483 39.2116 48.2467 40.1466 48.36C41.5066 48.5583 42.7816 48.6433 43.9432 48.6433C48.2499 48.6433 51.3382 47.34 52.7549 44.875C54.5682 41.73 53.4066 37.225 49.4682 32.21C48.9016 31.4733 48.2499 30.7367 47.5699 30C48.2499 29.2633 48.9016 28.5267 49.4682 27.79C53.4066 22.775 54.5966 18.27 52.7549 15.125ZM40.5432 14.445C41.7899 14.275 42.9232 14.19 43.9716 14.19C47.1732 14.19 49.4116 15.0117 50.2899 16.5417C51.4799 18.61 50.3466 22.0667 47.2299 26.0333C46.7199 26.685 46.1532 27.3367 45.5582 27.96C43.7166 26.2033 41.6482 24.475 39.3532 22.8317C39.0699 20.0267 38.6166 17.3633 38.0216 14.955C38.8716 14.785 39.7499 14.5583 40.5432 14.445ZM31.9582 38.585C30.3149 39.5483 28.6432 40.3983 26.9999 41.1917C25.3566 40.3983 23.6849 39.5483 22.0416 38.585C20.3982 37.6217 18.8116 36.63 17.3099 35.5817C17.1682 33.7967 17.0832 31.955 17.0832 30C17.0832 28.045 17.1682 26.2033 17.3099 24.4183C18.8116 23.37 20.3982 22.3783 22.0416 21.415C23.6849 20.4517 25.3566 19.6017 26.9999 18.8083C28.6432 19.6017 30.3149 20.4517 31.9582 21.415C33.6016 22.3783 35.1882 23.37 36.6899 24.4183C36.8316 26.2033 36.9166 28.0733 36.9166 30C36.9166 31.955 36.8316 33.7967 36.6899 35.5817C35.1882 36.63 33.6016 37.65 31.9582 38.585ZM36.2649 39.265C36.0099 41.0783 35.6699 42.7783 35.3016 44.3367C33.7149 43.8833 32.0999 43.2883 30.4282 42.6367C31.4199 42.1267 32.4116 41.5883 33.3749 41.0217C34.3666 40.455 35.3299 39.86 36.2649 39.265ZM23.5716 42.6367C21.8999 43.3167 20.2849 43.8833 18.6982 44.3367C18.3016 42.75 17.9899 41.05 17.7349 39.265C18.6699 39.86 19.6332 40.455 20.6249 41.05C21.6166 41.6167 22.5799 42.1267 23.5716 42.6367ZM14.3349 33.4C12.9182 32.295 11.6149 31.1617 10.3966 30C11.5866 28.8383 12.9182 27.705 14.3349 26.6C14.2782 27.7333 14.2499 28.8383 14.2499 30C14.2499 31.1617 14.2782 32.2667 14.3349 33.4ZM20.6249 18.95C19.6332 19.5167 18.6699 20.1117 17.7349 20.735C17.9899 18.9217 18.3299 17.2217 18.6982 15.6633C20.2849 16.1167 21.8999 16.7117 23.5716 17.3633C22.5799 17.8733 21.6166 18.3833 20.6249 18.95ZM30.4282 17.3633C32.0999 16.6833 33.7149 16.1167 35.3016 15.6633C35.6982 17.25 36.0099 18.95 36.2649 20.735C35.3299 20.1117 34.3666 19.5167 33.3749 18.95C32.3832 18.3833 31.4199 17.8733 30.4282 17.3633ZM39.6649 26.6C41.0816 27.705 42.3849 28.8383 43.6032 30C42.4132 31.1617 41.0816 32.295 39.6649 33.4C39.7216 32.295 39.7499 31.1617 39.7499 30C39.7499 28.8383 39.7216 27.7333 39.6649 26.6ZM26.9999 3.08333C29.6916 3.08333 32.5816 6.76667 34.5366 12.8867C32.0999 13.6233 29.5499 14.5583 26.9999 15.6917C24.4499 14.53 21.8999 13.595 19.4632 12.8867C21.4182 6.76667 24.3082 3.08333 26.9999 3.08333ZM3.68156 16.5417C4.58823 14.9833 6.82656 14.19 10.0282 14.19C11.0766 14.19 12.2382 14.275 13.4566 14.445C14.2499 14.5583 15.1282 14.785 15.9499 14.955C15.3549 17.3917 14.9016 20.0267 14.6182 22.86C12.3232 24.5033 10.2549 26.2317 8.41323 27.9883C7.81823 27.3367 7.25156 26.685 6.74156 26.0617C3.6249 22.0667 2.49156 18.61 3.68156 16.5417ZM13.4566 45.555C8.44156 46.2633 4.87156 45.4983 3.68156 43.4583C2.49156 41.39 3.6249 37.9333 6.74156 33.9667C7.25156 33.315 7.81823 32.6633 8.41323 32.04C10.2549 33.7967 12.3232 35.525 14.6182 37.1683C14.9016 39.9733 15.3549 42.6367 15.9499 45.045C15.1282 45.215 14.2499 45.4417 13.4566 45.555ZM26.9999 56.9167C24.3082 56.9167 21.4182 53.2333 19.4632 47.1133C21.8999 46.405 24.4216 45.47 26.9999 44.3083C29.5499 45.47 32.0999 46.405 34.5366 47.1133C32.5816 53.2333 29.6916 56.9167 26.9999 56.9167ZM50.3182 43.4583C49.1282 45.5267 45.5582 46.2633 40.5432 45.555C39.7499 45.4417 38.8716 45.215 38.0499 45.045C38.6449 42.6083 39.0982 39.9733 39.3816 37.1683C41.6766 35.525 43.7449 33.7967 45.5866 32.04C46.1816 32.6917 46.7482 33.3433 47.2582 33.9667C50.3749 37.9333 51.5082 41.39 50.3182 43.4583Z" fill="#FFCB4F"/><path d="M27 25.75C24.6483 25.75 22.75 27.6483 22.75 30C22.75 32.3517 24.6483 34.25 27 34.25C29.3517 34.25 31.25 32.3517 31.25 30C31.25 27.6483 29.3517 25.75 27 25.75ZM27 31.4167C26.2067 31.4167 25.5833 30.7933 25.5833 30C25.5833 29.2067 26.2067 28.5833 27 28.5833C27.7933 28.5833 28.4167 29.2067 28.4167 30C28.4167 30.7933 27.7933 31.4167 27 31.4167Z" fill="#FFCB4F"/></symbol>


	<symbol id="ChevronLeft" xmlns="http://www.w3.org/2000/svg" fill="none" viewBox="0 0 24 24" stroke="currentColor"><path stroke-linecap="round" stroke-linejoin="round" d="M15.75 19.5L8.25 12l7.5-7.5" /></symbol>
	<symbol id="ChevronRight" xmlns="http://www.w3.org/2000/svg" fill="none" viewBox="0 0 24 24" stroke="currentColor"><path stroke-linecap="round" stroke-linejoin="round" d="M8.25 4.5l7.5 7.5-7.5 7.5" /></symbol>
	<symbol id="ChevronUp" xmlns="http://www.w3.org/2000/svg" fill="none" viewBox="0 0 24 24" stroke="currentColor"><path stroke-linecap="round" stroke-linejoin="round" d="M4.5 15.75l7.5-7.5 7.5 7.5" /></symbol>	
	<symbol id="ChevronDown" xmlns="http://www.w3.org/2000/svg" fill="none" viewBox="0 0 24 24" stroke="currentColor"><path stroke-linecap="round" stroke-linejoin="round" d="M19.5 8.25l-7.5 7.5-7.5-7.5" /></symbol>
	<symbol id="QuestionMarkCircle" xmlns="http://www.w3.org/2000/svg" fill="none" viewBox="0 0 24 24" stroke="currentColor"><path stroke-linecap="round" stroke-linejoin="round" d="M9.879 7.519c1.171-1.025 3.071-1.025 4.242 0 1.172 1.025 1.172 2.687 0 3.712-.203.179-.43.326-.67.442-.745.361-1.45.999-1.45 1.827v.75M21 12a9 9 0 11-18 0 9 9 0 0118 0zm-9 5.25h.008v.008H12v-.008z" /></symbol>
	<symbol id="User" width="20" height="20" viewBox="0 0 20 20" fill="none" xmlns="http://www.w3.org/2000/svg"><path fill-rule="evenodd" clip-rule="evenodd" d="M10.0003 3.33366C8.61961 3.33366 7.50033 4.45295 7.50033 5.83366C7.50033 7.21437 8.61961 8.33366 10.0003 8.33366C11.381 8.33366 12.5003 7.21437 12.5003 5.83366C12.5003 4.45295 11.381 3.33366 10.0003 3.33366ZM5.83366 5.83366C5.83366 3.53247 7.69914 1.66699 10.0003 1.66699C12.3015 1.66699 14.167 3.53247 14.167 5.83366C14.167 8.13484 12.3015 10.0003 10.0003 10.0003C7.69914 10.0003 5.83366 8.13484 5.83366 5.83366ZM8.33366 13.3337C7.67062 13.3337 7.03473 13.597 6.56589 14.0659C6.09705 14.5347 5.83366 15.1706 5.83366 15.8337V17.5003C5.83366 17.9606 5.46056 18.3337 5.00033 18.3337C4.54009 18.3337 4.16699 17.9606 4.16699 17.5003V15.8337C4.16699 14.7286 4.60598 13.6688 5.38738 12.8874C6.16878 12.106 7.22859 11.667 8.33366 11.667H11.667C12.7721 11.667 13.8319 12.106 14.6133 12.8874C15.3947 13.6688 15.8337 14.7286 15.8337 15.8337V17.5003C15.8337 17.9606 15.4606 18.3337 15.0003 18.3337C14.5401 18.3337 14.167 17.9606 14.167 17.5003V15.8337C14.167 15.1706 13.9036 14.5347 13.4348 14.0659C12.9659 13.597 12.33 13.3337 11.667 13.3337H8.33366Z" fill="currentColor"/></symbol>
	<symbol id="ShoppingCart" width="20" height="20" viewBox="0 0 20 20" fill="none" xmlns="http://www.w3.org/2000/svg"><path d="M14.9997 5.00033H13.333C13.333 3.15866 11.8413 1.66699 9.99968 1.66699C8.15801 1.66699 6.66634 3.15866 6.66634 5.00033H4.99967C4.08301 5.00033 3.33301 5.75033 3.33301 6.66699V16.667C3.33301 17.5837 4.08301 18.3337 4.99967 18.3337H14.9997C15.9163 18.3337 16.6663 17.5837 16.6663 16.667V6.66699C16.6663 5.75033 15.9163 5.00033 14.9997 5.00033ZM9.99968 3.33366C10.9163 3.33366 11.6663 4.08366 11.6663 5.00033H8.33301C8.33301 4.08366 9.08301 3.33366 9.99968 3.33366ZM14.9997 16.667H4.99967V6.66699H6.66634V8.33366C6.66634 8.79199 7.04134 9.16699 7.49967 9.16699C7.95801 9.16699 8.33301 8.79199 8.33301 8.33366V6.66699H11.6663V8.33366C11.6663 8.79199 12.0413 9.16699 12.4997 9.16699C12.958 9.16699 13.333 8.79199 13.333 8.33366V6.66699H14.9997V16.667Z" fill="currentColor"/></symbol>
	<symbol id="Bars3" xmlns="http://www.w3.org/2000/svg" viewBox="0 0 20 20" stroke="currentColor" fill="none"><path fill-rule="evenodd" clip-rule="evenodd" d="M2.5 5.00033C2.5 4.54009 2.8731 4.16699 3.33333 4.16699H16.6667C17.1269 4.16699 17.5 4.54009 17.5 5.00033C17.5 5.46056 17.1269 5.83366 16.6667 5.83366H3.33333C2.8731 5.83366 2.5 5.46056 2.5 5.00033ZM2.5 10.0003C2.5 9.54009 2.8731 9.16699 3.33333 9.16699H16.6667C17.1269 9.16699 17.5 9.54009 17.5 10.0003C17.5 10.4606 17.1269 10.8337 16.6667 10.8337H3.33333C2.8731 10.8337 2.5 10.4606 2.5 10.0003ZM2.5 15.0003C2.5 14.5401 2.8731 14.167 3.33333 14.167H16.6667C17.1269 14.167 17.5 14.5401 17.5 15.0003C17.5 15.4606 17.1269 15.8337 16.6667 15.8337H3.33333C2.8731 15.8337 2.5 15.4606 2.5 15.0003Z" fill="currentColor"/></symbol>
	<symbol id="Heart" xmlns="http://www.w3.org/2000/svg" viewBox="0 0 24 24" stroke="currentColor"><path stroke-linecap="round" stroke-linejoin="round" d="M21 8.25c0-2.485-2.099-4.5-4.688-4.5-1.935 0-3.597 1.126-4.312 2.733-.715-1.607-2.377-2.733-4.313-2.733C5.1 3.75 3 5.765 3 8.25c0 7.22 9 12 9 12s9-4.78 9-12z" /></symbol>
	<symbol id="MagnifyingGlass" width="20" height="20" viewBox="0 0 20 20" fill="none" xmlns="http://www.w3.org/2000/svg"><path fill-rule="evenodd" clip-rule="evenodd" d="M8.33366 3.33366C5.57223 3.33366 3.33366 5.57223 3.33366 8.33366C3.33366 11.0951 5.57223 13.3337 8.33366 13.3337C11.0951 13.3337 13.3337 11.0951 13.3337 8.33366C13.3337 5.57223 11.0951 3.33366 8.33366 3.33366ZM1.66699 8.33366C1.66699 4.65176 4.65176 1.66699 8.33366 1.66699C12.0156 1.66699 15.0003 4.65176 15.0003 8.33366C15.0003 9.87425 14.4778 11.2928 13.6002 12.4217L18.0896 16.9111C18.415 17.2365 18.415 17.7641 18.0896 18.0896C17.7641 18.415 17.2365 18.415 16.9111 18.0896L12.4217 13.6002C11.2928 14.4778 9.87425 15.0003 8.33366 15.0003C4.65176 15.0003 1.66699 12.0156 1.66699 8.33366Z" fill="currentColor"/></symbol>
	<symbol id="XMark" xmlns="http://www.w3.org/2000/svg" fill="none" viewBox="0 0 24 24" stroke="currentColor"><path stroke-linecap="round" stroke-linejoin="round" d="M6 18L18 6M6 6l12 12" /></symbol>
	<symbol id="Plus" xmlns="http://www.w3.org/2000/svg" fill="none" viewBox="0 0 24 24" stroke="currentColor"><path stroke-linecap="round" stroke-linejoin="round" d="M12 4.5v15m7.5-7.5h-15" /></symbol>
	<symbol id="Minus" xmlns="http://www.w3.org/2000/svg" fill="none" viewBox="0 0 24 24" stroke="currentColor"><path stroke-linecap="round" stroke-linejoin="round" d="M19.5 12h-15" /></symbol>
	<symbol id="MapPin" xmlns="http://www.w3.org/2000/svg" fill="none" viewBox="0 0 24 24" stroke="currentColor"><path stroke-linecap="round" stroke-linejoin="round" d="M15 10.5a3 3 0 11-6 0 3 3 0 016 0z" /><path stroke-linecap="round" stroke-linejoin="round" d="M19.5 10.5c0 7.142-7.5 11.25-7.5 11.25S4.5 17.642 4.5 10.5a7.5 7.5 0 1115 0z" /></symbol>	
	<symbol id="Phone" xmlns="http://www.w3.org/2000/svg" fill="none" viewBox="0 0 24 24" stroke="currentColor"><path stroke-linecap="round" stroke-linejoin="round" d="M2.25 6.75c0 8.284 6.716 15 15 15h2.25a2.25 2.25 0 002.25-2.25v-1.372c0-.516-.351-.966-.852-1.091l-4.423-1.106c-.44-.11-.902.055-1.173.417l-.97 1.293c-.282.376-.769.542-1.21.38a12.035 12.035 0 01-7.143-7.143c-.162-.441.004-.928.38-1.21l1.293-.97c.363-.271.527-.734.417-1.173L6.963 3.102a1.125 1.125 0 00-1.091-.852H4.5A2.25 2.25 0 002.25 4.5v2.25z" /></symbol>
	<symbol id="Elo" xmlns="http://www.w3.org/2000/svg" viewBox="0 0 40 14" stroke="currentColor" fill="none"><path d="M6.57655 3.09309C6.98496 2.95495 7.4234 2.88288 7.87985 2.88288C9.87385 2.88288 11.5375 4.3003 11.9159 6.18018L14.7387 5.6036C14.0901 2.40841 11.2672 0 7.87985 0C7.10508 0 6.36033 0.126126 5.66364 0.36036L6.57655 3.09309Z" fill="currentColor"/><path d="M3.24323 12.2463L5.15314 10.0841C4.30029 9.32733 3.76576 8.22823 3.76576 6.997C3.76576 5.77178 4.30029 4.66667 5.15314 3.91592L3.24323 1.75977C1.79579 3.04505 0.882874 4.91292 0.882874 7.00301C0.882874 9.08709 1.79579 10.961 3.24323 12.2463Z" fill="currentColor"/><path d="M11.9159 7.82617C11.5315 9.70605 9.87387 11.1175 7.87988 11.1175C7.42342 11.1175 6.98498 11.0454 6.57057 10.9073L5.65765 13.64C6.35435 13.8742 7.1051 14.0003 7.87988 14.0003C11.2673 14.0003 14.0901 11.5979 14.7387 8.40275L11.9159 7.82617Z" fill="currentColor"/><path d="M24.1441 9.75962C23.6757 10.2161 23.045 10.4924 22.3484 10.4803C21.8679 10.4743 21.4234 10.3302 21.0511 10.0899L20.1141 11.5794C20.7568 11.9818 21.5075 12.2221 22.3243 12.2341C23.5075 12.2521 24.5886 11.7836 25.3754 11.0209L24.1441 9.75962ZM22.4505 3.68755C20.0961 3.65151 18.1502 5.5374 18.1141 7.89175C18.1021 8.77463 18.3544 9.60346 18.8048 10.2881L26.5405 6.97884C26.1081 5.12298 24.4505 3.72358 22.4505 3.68755ZM19.8859 8.22809C19.8739 8.13199 19.8679 8.02989 19.8679 7.92779C19.8919 6.5404 21.033 5.42929 22.4204 5.45331C23.1772 5.46532 23.8499 5.80767 24.3003 6.34821L19.8859 8.22809ZM28.973 1.76562V10.0119L30.4024 10.6065L29.7237 12.2341L28.3063 11.6455C27.988 11.5074 27.7718 11.2972 27.6096 11.0569C27.4535 10.8167 27.3333 10.4803 27.3333 10.0359V1.76562H28.973Z" fill="currentColor"/><path d="M34.1321 5.57925C34.3844 5.49516 34.6487 5.45312 34.9309 5.45312C36.1502 5.45312 37.1592 6.31798 37.3934 7.46513L39.1171 7.11078C38.7207 5.15882 36.997 3.69336 34.9309 3.69336C34.4565 3.69336 34 3.77144 33.5796 3.90958L34.1321 5.57925ZM32.0961 11.1588L33.2613 9.84351C32.7387 9.38105 32.4144 8.70837 32.4144 7.95762C32.4144 7.20687 32.7448 6.5342 33.2613 6.07774L32.0961 4.76243C31.2132 5.54321 30.6547 6.69036 30.6547 7.96363C30.6547 9.2369 31.2132 10.378 32.0961 11.1588ZM37.3934 8.46813C37.1592 9.61528 36.1442 10.4801 34.9309 10.4801C34.6547 10.4801 34.3844 10.4321 34.1321 10.348L33.5736 12.0177C34 12.1618 34.4565 12.2399 34.9309 12.2399C36.997 12.2399 38.7207 10.7744 39.1171 8.82249L37.3934 8.46813Z" fill="currentColor"/></symbol>
	<symbol id="Mastercard" xmlns="http://www.w3.org/2000/svg" viewBox="0 0 26 20" fill="none" stroke="currentColor"><g clip-path="url(#clip0_81_156)"><path d="M4.77191 19.9552V18.6263C4.77191 18.1167 4.46174 17.7846 3.95265 17.7846C3.68527 17.7846 3.39918 17.8734 3.19971 18.159C3.04463 17.9151 2.82538 17.7846 2.49116 17.7846C2.36689 17.7793 2.24323 17.8048 2.13124 17.8589C2.01926 17.913 1.92244 17.9941 1.84944 18.0948V17.8274H1.42859V19.9536H1.84944V18.737C1.84944 18.3627 2.07083 18.1836 2.381 18.1836C2.69116 18.1836 2.86816 18.383 2.86816 18.737V19.9552H3.28902V18.737C3.28902 18.3627 3.51041 18.1836 3.82057 18.1836C4.13073 18.1836 4.30773 18.383 4.30773 18.737V19.9552H4.77191ZM11.6821 17.8509H10.9067V17.2092H10.4869V17.8509H10.0441V18.2253H10.4869V19.2242C10.4869 19.7114 10.6639 19.9996 11.1954 19.9996C11.3968 19.9954 11.5941 19.9422 11.7703 19.8445L11.6371 19.4702C11.5177 19.5449 11.3791 19.5833 11.2382 19.5809C11.0168 19.5809 10.9061 19.4477 10.9061 19.2263V18.2082H11.6815V17.8536L11.6821 17.8509ZM15.6243 17.7846C15.5097 17.7821 15.3964 17.8093 15.2954 17.8637C15.1945 17.918 15.1093 17.9977 15.0484 18.0948V17.8274H14.6275V19.9536H15.0484V18.7595C15.0484 18.405 15.2254 18.1836 15.5136 18.1836C15.6109 18.1875 15.7074 18.2024 15.8013 18.2279L15.9345 17.829C15.8329 17.8034 15.729 17.7885 15.6243 17.7846ZM9.66656 18.006C9.44517 17.8509 9.13501 17.7846 8.80292 17.7846C8.27137 17.7846 7.93928 18.0285 7.93928 18.4493C7.93928 18.8039 8.18314 19.0028 8.64784 19.0697L8.86923 19.0916C9.11308 19.136 9.26816 19.2247 9.26816 19.3354C9.26816 19.4905 9.09116 19.6028 8.75854 19.6028C8.50456 19.608 8.2558 19.5303 8.04998 19.3814L7.82859 19.7135C8.13875 19.9349 8.51522 19.9809 8.73768 19.9809C9.358 19.9809 9.69009 19.6932 9.69009 19.2943C9.69009 18.9199 9.42271 18.7408 8.95907 18.6739L8.73768 18.652C8.53822 18.6301 8.36335 18.5632 8.36335 18.4306C8.36335 18.2755 8.54036 18.1632 8.78421 18.1632C9.05159 18.1632 9.31576 18.2739 9.44891 18.3402L9.66656 18.006ZM16.0896 18.8921C16.0896 19.5338 16.5104 19.9996 17.197 19.9996C17.5072 19.9996 17.7286 19.9333 17.95 19.7558L17.7286 19.4237C17.5718 19.5506 17.3768 19.6209 17.1751 19.6231C16.8008 19.6231 16.5104 19.3354 16.5104 18.9146C16.5104 18.4937 16.797 18.2082 17.1751 18.2082C17.3768 18.2104 17.5718 18.2807 17.7286 18.4076L17.95 18.0755C17.7286 17.8985 17.5072 17.8317 17.197 17.8317C16.5323 17.7873 16.0896 18.2525 16.0896 18.8948V18.8921ZM13.1216 17.7846C12.5013 17.7846 12.0805 18.2274 12.0805 18.8921C12.0805 19.5568 12.5232 19.9996 13.1655 19.9996C13.4779 20.0062 13.7831 19.9046 14.0291 19.7119L13.8077 19.4017C13.6298 19.5396 13.4125 19.6172 13.1874 19.6231C12.8997 19.6231 12.5896 19.4461 12.5457 19.0697H14.1184V18.8927C14.1184 18.2279 13.7195 17.7852 13.1216 17.7852V17.7846ZM13.0997 18.1836C13.4099 18.1836 13.6313 18.383 13.6532 18.7151H12.5019C12.5682 18.405 12.7692 18.1836 13.0997 18.1836ZM7.36335 18.8921V17.829H6.94249V18.0964C6.78741 17.8969 6.56816 17.7862 6.25586 17.7862C5.658 17.7862 5.21469 18.2515 5.21469 18.8937C5.21469 19.536 5.65747 20.0012 6.25586 20.0012C6.56602 20.0012 6.78741 19.8905 6.94249 19.691V19.9584H7.36335V18.8921ZM5.658 18.8921C5.658 18.4932 5.90185 18.1836 6.32271 18.1836C6.72164 18.1836 6.96442 18.4937 6.96442 18.8921C6.96442 19.313 6.69704 19.6007 6.32271 19.6007C5.90185 19.6226 5.658 19.2905 5.658 18.8921ZM22.0259 17.7846C21.9113 17.7821 21.798 17.8093 21.697 17.8637C21.5961 17.918 21.5109 17.9977 21.45 18.0948V17.8274H21.0291V19.9536H21.4495V18.7595C21.4495 18.405 21.6265 18.1836 21.9147 18.1836C22.012 18.1875 22.1085 18.2024 22.2024 18.2279L22.3355 17.829C22.234 17.8034 22.13 17.7885 22.0254 17.7846H22.0259ZM20.3869 18.8921V17.829H19.966V18.0964C19.8109 17.8969 19.5917 17.7862 19.2794 17.7862C18.6815 17.7862 18.2382 18.2515 18.2382 18.8937C18.2382 19.536 18.681 20.0012 19.2794 20.0012C19.5896 20.0012 19.8109 19.8905 19.966 19.691V19.9584H20.3869V18.8921ZM18.6815 18.8921C18.6815 18.4932 18.9254 18.1836 19.3462 18.1836C19.7452 18.1836 19.988 18.4937 19.988 18.8921C19.988 19.313 19.7206 19.6007 19.3462 19.6007C18.9254 19.6226 18.6815 19.2905 18.6815 18.8921ZM24.6618 18.8921V16.9873H24.2409V18.0948C24.0858 17.8953 23.8666 17.7846 23.5543 17.7846C22.9564 17.7846 22.5131 18.2499 22.5131 18.8921C22.5131 19.5344 22.9559 19.9996 23.5543 19.9996C23.8644 19.9996 24.0858 19.8889 24.2409 19.6894V19.9568H24.6618V18.8921ZM22.9564 18.8921C22.9564 18.4932 23.2003 18.1836 23.6211 18.1836C24.02 18.1836 24.2628 18.4937 24.2628 18.8921C24.2628 19.313 23.9954 19.6007 23.6211 19.6007C23.1997 19.6231 22.9559 19.291 22.9559 18.8921H22.9564Z" fill="currentColor"/><path d="M9.95478 7.97327C9.95505 6.76731 10.2281 5.57704 10.7536 4.49159C11.279 3.40613 12.0433 2.45361 12.989 1.70535C11.8128 0.780601 10.4002 0.205442 8.9126 0.045623C7.42499 -0.114196 5.92242 0.147775 4.57667 0.801588C3.23091 1.4554 2.09627 2.47468 1.30244 3.74289C0.508619 5.01111 0.0876465 6.47709 0.0876465 7.97327C0.0876465 9.46944 0.508619 10.9354 1.30244 12.2036C2.09627 13.4719 3.23091 14.4911 4.57667 15.1449C5.92242 15.7988 7.42499 16.0607 8.9126 15.9009C10.4002 15.7411 11.8128 15.1659 12.989 14.2412C12.0433 13.4929 11.279 12.5404 10.7536 11.4549C10.2281 10.3695 9.95505 9.17922 9.95478 7.97327Z" fill="currentColor"/><path d="M25.9019 7.97297C25.9029 9.46805 25.4832 10.9333 24.6907 12.201C23.8982 13.4688 22.7648 14.4879 21.4203 15.1418C20.0758 15.7957 18.5744 16.0579 17.0879 15.8986C15.6013 15.7393 14.1896 15.1648 13.0142 14.2409C13.9601 13.4928 14.7245 12.5403 15.25 11.4548C15.7755 10.3693 16.0485 9.17898 16.0485 7.97297C16.0485 6.76696 15.7755 5.5766 15.25 4.4911C14.7245 3.4056 13.9601 2.45312 13.0142 1.70506C14.1896 0.781104 15.6013 0.20662 17.0879 0.0473072C18.5744 -0.112005 20.0758 0.150287 21.4203 0.804186C22.7648 1.45808 23.8982 2.47719 24.6907 3.74493C25.4832 5.01268 25.9029 6.47789 25.9019 7.97297Z" fill="currentColor" fill-opacity="0.4"/><path fill-rule="evenodd" clip-rule="evenodd" d="M13.0141 1.70508H12.989C12.0432 2.45333 11.279 3.40585 10.7536 4.49131C10.2281 5.57677 9.95504 6.76704 9.95477 7.97299C9.95504 9.17894 10.2281 10.3692 10.7536 11.4547C11.279 12.5401 12.0433 13.4926 12.989 14.2409H13.0141C13.0141 14.2409 13.0141 14.2409 13.0141 14.2409C13.9601 13.4928 14.7245 12.5404 15.25 11.4549C15.7755 10.3694 16.0484 9.17899 16.0484 7.97299C16.0484 6.76698 15.7755 5.57661 15.25 4.49111C14.7245 3.40561 13.9601 2.45314 13.0141 1.70508Z" fill="currentColor" fill-opacity="0.6"/></g><defs><clipPath id="clip0_81_156"><rect width="25.8027" height="20" fill="white" transform="translate(0.0986328)"/></clipPath></defs></symbol>
	<symbol id="Visa" xmlns="http://www.w3.org/2000/svg" viewBox="0 0 40 12" fill="none" stroke="currentColor"><path d="M14.2514 11.8628L16.2325 0.237305H19.4012L17.4187 11.8628H14.2514Z" fill="currentColor"/><path d="M28.8667 0.488266C28.2389 0.252744 27.2552 0 26.0267 0C22.8956 0 20.6902 1.57674 20.6714 3.83653C20.6537 5.50698 22.2459 6.43886 23.4479 6.99494C24.6813 7.56486 25.0959 7.92824 25.09 8.437C25.0821 9.21631 24.105 9.57221 23.1942 9.57221C21.926 9.57221 21.2522 9.39601 20.2115 8.96208L19.8031 8.77728L19.3585 11.3797C20.0986 11.7043 21.4671 11.9854 22.8882 12C26.2191 12 28.3815 10.4413 28.4061 8.02807C28.4179 6.70556 27.5737 5.69921 25.7455 4.86948C24.638 4.33169 23.9597 3.97282 23.9669 3.42826C23.9669 2.94504 24.541 2.42833 25.7816 2.42833C26.8177 2.41223 27.5684 2.6382 28.1533 2.87372L28.4372 3.00787L28.8667 0.488266Z" fill="currentColor"/><path d="M37.0208 0.237305H34.5723C33.8138 0.237305 33.2461 0.444322 32.913 1.20137L28.2071 11.8552H31.5345C31.5345 11.8552 32.0785 10.4228 32.2015 10.1082C32.5651 10.1082 35.7976 10.1132 36.2597 10.1132C36.3545 10.5202 36.6452 11.8552 36.6452 11.8552H39.5855L37.0208 0.237305ZM33.136 7.74409C33.3981 7.07428 34.3985 4.49428 34.3985 4.49428C34.3798 4.52522 34.6587 3.82121 34.8186 3.38473L35.0328 4.38703C35.0328 4.38703 35.6395 7.16205 35.7663 7.74391H33.136V7.74409Z" fill="currentColor"/><path d="M0.45503 0.237305L0.414551 0.479138C1.66716 0.782359 2.78593 1.22123 3.76542 1.76717L6.57706 11.8441L9.92966 11.8404L14.9183 0.237305H11.5615L8.45929 8.16502L8.12885 6.55384C8.11337 6.50406 8.09654 6.4542 8.07932 6.40422L7.00087 1.21879C6.80912 0.482646 6.25282 0.262959 5.56461 0.237305H0.45503Z" fill="currentColor"/></symbol>		
	<symbol id="Pix" viewBox="0 0 512 512" xmlns="http://www.w3.org/2000/svg" fill="none" stroke="currentColor"> <defs/> <g fill="currentColor" fill-rule="evenodd"> <path d="M393.072 391.897c-20.082 0-38.969-7.81-53.176-22.02l-77.069-77.067c-5.375-5.375-14.773-5.395-20.17 0l-76.784 76.786c-14.209 14.207-33.095 22.019-53.179 22.019h-9.247l97.521 97.52c30.375 30.375 79.614 30.375 109.988 0l97.239-97.238h-15.123zm-105.049 74.327c-8.55 8.53-19.93 13.25-32.05 13.25h-.02c-12.12 0-23.522-4.721-32.05-13.25l-56.855-56.855c7.875-4.613 15.165-10.248 21.758-16.84l63.948-63.948 64.23 64.23c7.637 7.66 16.188 14.013 25.478 18.952l-54.439 54.46zM310.958 22.78c-30.374-30.374-79.613-30.374-109.988 0l-97.52 97.52h9.247c20.082 0 38.97 7.834 53.178 22.02l76.784 76.785c5.57 5.592 14.622 5.57 20.17 0l77.069-77.068c14.207-14.187 33.094-22.02 53.176-22.02h15.123l-97.239-97.237zm6.028 96.346l-64.23 64.23-63.97-63.97c-6.593-6.592-13.86-12.206-21.736-16.818l56.853-56.877c17.69-17.645 46.476-17.668 64.121 0l54.44 54.461c-9.292 4.961-17.842 11.315-25.479 18.974h.001z"/> <path d="M489.149 200.97l-58.379-58.377h-37.706c-13.838 0-27.394 5.635-37.185 15.426l-77.068 77.069c-7.202 7.18-16.623 10.77-26.067 10.77-9.443 0-18.885-3.59-26.066-10.77l-76.785-76.785c-9.792-9.814-23.346-15.427-37.207-15.427h-31.81L22.78 200.97c-30.374 30.375-30.374 79.614 0 109.988l58.095 58.074 31.81.021c13.86 0 27.416-5.635 37.208-15.426l76.784-76.764c13.925-13.947 38.208-13.924 52.133-.02l77.068 77.066c9.791 9.792 23.346 15.405 37.185 15.405h37.706l58.379-58.356c30.374-30.374 30.374-79.613 0-109.988zm-362.19 129.724c-3.763 3.786-8.942 5.917-14.273 5.917H94.302l-48.59-48.564c-17.689-17.69-17.689-46.476 0-64.143L94.3 175.296h18.385c5.331 0 10.51 2.154 14.295 5.918l74.74 74.74-74.761 74.74zm339.257-42.647l-48.848 48.87h-24.305c-5.309 0-10.508-2.155-14.251-5.92l-75.023-75.043 75.023-75.023c3.743-3.764 8.942-5.918 14.252-5.918h24.304l48.847 48.891c8.573 8.551 13.273 19.93 13.273 32.05 0 12.141-4.7 23.52-13.273 32.093z"/> </g> </symbol>
	<symbol id="Facebook" xmlns="http://www.w3.org/2000/svg" viewBox="0 0 24 24" stroke="currentColor" fill="none" stroke-linecap="round" stroke-linejoin="round"><path stroke="none" d="M0 0h24v24H0z" fill="none" /><path d="M7 10v4h3v7h4v-7h3l1 -4h-4v-2a1 1 0 0 1 1 -1h3v-4h-3a5 5 0 0 0 -5 5v2h-3" /></symbol>
	<symbol id="Instagram" xmlns="http://www.w3.org/2000/svg" viewBox="0 0 24 24" stroke="currentColor" fill="none" stroke-linecap="round" stroke-linejoin="round"><path stroke="none" d="M0 0h24v24H0z" fill="none" /><rect x="4" y="4" width="16" height="16" rx="4" /><circle cx="12" cy="12" r="3" /><line x1="16.5" y1="7.5" x2="16.5" y2="7.501" /></symbol>
	<symbol id="Tiktok" xmlns="http://www.w3.org/2000/svg" viewBox="0 0 24 24" stroke="currentColor" fill="none" stroke-linecap="round" stroke-linejoin="round"><path stroke="none" d="M0 0h24v24H0z" fill="none" /><path d="M9 12a4 4 0 1 0 4 4v-12a5 5 0 0 0 5 5" /></symbol>
	<symbol id="Truck" xmlns="http://www.w3.org/2000/svg"  viewBox="0 0 36 28" stroke="currentColor" fill="none"><path d="M14 22.333C14 24.174 12.5077 25.6663 10.6667 25.6663C8.82576 25.6663 7.33337 24.174 7.33337 22.333M14 22.333C14 20.4921 12.5077 18.9997 10.6667 18.9997C8.82576 18.9997 7.33337 20.4921 7.33337 22.333M14 22.333H24M7.33337 22.333H4.00004V15.6663M30.6667 22.333C30.6667 24.174 29.1743 25.6663 27.3334 25.6663C25.4924 25.6663 24 24.174 24 22.333M30.6667 22.333C30.6667 20.4921 29.1743 18.9997 27.3334 18.9997C25.4924 18.9997 24 20.4921 24 22.333M30.6667 22.333H34V12.333M2.33337 2.33301H20.6667V22.333M34 12.333H20.6667M34 12.333L29 3.99967H20.6667M4.00004 8.99967H10.6667" stroke-linecap="round" stroke-linejoin="round"/></symbol>
	<symbol id="Discount" xmlns="http://www.w3.org/2000/svg" viewBox="0 0 34 34" stroke="currentColor" fill="none"><path d="M12 21.9998L22 11.9998M13.6667 12.8332C13.6667 13.2934 13.2936 13.6665 12.8333 13.6665C12.3731 13.6665 12 13.2934 12 12.8332C12 12.3729 12.3731 11.9998 12.8333 11.9998C13.2936 11.9998 13.6667 12.3729 13.6667 12.8332ZM22 21.1665C22 21.6267 21.6269 21.9998 21.1667 21.9998C20.7064 21.9998 20.3333 21.6267 20.3333 21.1665C20.3333 20.7063 20.7064 20.3332 21.1667 20.3332C21.6269 20.3332 22 20.7063 22 21.1665ZM5.33334 8.99979C5.33334 8.02733 5.71965 7.0947 6.40728 6.40707C7.09491 5.71943 8.02755 5.33313 9.00001 5.33313H10.6667C11.6348 5.33257 12.5635 4.94913 13.25 4.26646L14.4167 3.09979C14.7574 2.75713 15.1625 2.4852 15.6087 2.29964C16.0549 2.11408 16.5334 2.01855 17.0167 2.01855C17.4999 2.01855 17.9784 2.11408 18.4246 2.29964C18.8708 2.4852 19.2759 2.75713 19.6167 3.09979L20.7833 4.26646C21.4699 4.94913 22.3985 5.33257 23.3667 5.33313H25.0333C26.0058 5.33313 26.9384 5.71943 27.6261 6.40707C28.3137 7.0947 28.7 8.02733 28.7 8.99979V10.6665C28.7006 11.6346 29.084 12.5633 29.7667 13.2498L30.9333 14.4165C31.276 14.7572 31.5479 15.1623 31.7335 15.6085C31.9191 16.0547 32.0146 16.5332 32.0146 17.0165C32.0146 17.4997 31.9191 17.9782 31.7335 18.4244C31.5479 18.8706 31.276 19.2757 30.9333 19.6165L29.7667 20.7831C29.084 21.4696 28.7006 22.3983 28.7 23.3665V25.0331C28.7 26.0056 28.3137 26.9382 27.6261 27.6259C26.9384 28.3135 26.0058 28.6998 25.0333 28.6998H23.3667C22.3985 28.7003 21.4699 29.0838 20.7833 29.7665L19.6167 30.9331C19.2759 31.2758 18.8708 31.5477 18.4246 31.7333C17.9784 31.9188 17.4999 32.0144 17.0167 32.0144C16.5334 32.0144 16.0549 31.9188 15.6087 31.7333C15.1625 31.5477 14.7574 31.2758 14.4167 30.9331L13.25 29.7665C12.5635 29.0838 11.6348 28.7003 10.6667 28.6998H9.00001C8.02755 28.6998 7.09491 28.3135 6.40728 27.6259C5.71965 26.9382 5.33334 26.0056 5.33334 25.0331V23.3665C5.33279 22.3983 4.94934 21.4696 4.26667 20.7831L3.10001 19.6165C2.75734 19.2757 2.48541 18.8706 2.29985 18.4244C2.11429 17.9782 2.01877 17.4997 2.01877 17.0165C2.01877 16.5332 2.11429 16.0547 2.29985 15.6085C2.48541 15.1623 2.75734 14.7572 3.10001 14.4165L4.26667 13.2498C4.94934 12.5633 5.33279 11.6346 5.33334 10.6665V8.99979Z" stroke-linecap="round" stroke-linejoin="round"/></symbol>
	<symbol id="Return" xmlns="http://www.w3.org/2000/svg" viewBox="0 0 34 30" stroke="currentColor" fill="none"><path d="M32 6.66699H2M32 6.66699L27 11.667M32 6.66699L27 1.66699M7 28.3337L2 23.3337M2 23.3337L7 18.3337M2 23.3337H32" stroke-linecap="round" stroke-linejoin="round"/></symbol>			
	<symbol id="CreditCard" xmlns="http://www.w3.org/2000/svg" viewBox="0 0 34 28" stroke="currentColor" fill="none"><path d="M2 10.6663H32M8.66667 18.9997H8.68333M15.3333 18.9997H18.6667M7 2.33301H27C29.7614 2.33301 32 4.57158 32 7.33301V20.6663C32 23.4278 29.7614 25.6663 27 25.6663H7C4.23858 25.6663 2 23.4278 2 20.6663V7.33301C2 4.57158 4.23858 2.33301 7 2.33301Z" stroke-linecap="round" stroke-linejoin="round"/></symbol>		
	<symbol id="Deco" xmlns="http://www.w3.org/2000/svg" viewBox="0 0 58 20" stroke="currentColor" fill="none"><path d="M49.5359 16.9432C47.3666 16.9432 46.9948 14.8019 47.6797 12.7178C48.2221 11.0615 49.5066 9.31991 51.4201 9.31991C53.676 9.31991 53.9039 11.6038 53.247 13.6026C52.6753 15.3162 51.3908 16.9432 49.5359 16.9432ZM48.879 19.9973C52.6473 19.9973 56.0159 17.9133 57.3578 14.1449C58.7569 10.1767 57.1859 6.2085 52.0477 6.2085C47.9369 6.2085 44.7962 8.77758 43.5969 12.1755C42.2551 16.0011 43.7115 19.9973 48.879 19.9973ZM36.3747 19.9973C37.8591 19.9973 39.3729 19.6829 40.4282 19.2271C40.8 18.1998 40.828 17.2004 40.5428 16.201C39.8006 16.4862 38.7732 16.7727 37.7165 16.7727C34.861 16.7727 34.6051 14.6606 35.2048 12.8617C35.8617 10.9496 37.574 9.40786 40.287 9.40786C41.0012 9.40786 41.6861 9.52246 42.1138 9.77963C42.856 8.78025 43.2838 7.78086 43.3704 6.7535C42.7428 6.46834 41.6861 6.21117 40.3163 6.21117C35.863 6.21117 32.3505 8.80956 31.0953 12.406C29.896 15.8039 30.8101 20 36.3774 20L36.3747 19.9973ZM21.0442 11.8037C21.8143 10.0901 23.0136 9.09206 24.5846 9.09206C25.9838 9.09206 26.2116 9.86225 25.9838 10.4619C25.6413 11.2894 24.47 11.8037 21.0442 11.8037ZM22.2714 19.9973C23.7278 19.9973 25.7826 19.7122 27.4962 18.8554C27.7813 17.9133 27.7534 16.9712 27.4389 15.9998C26.3542 16.5421 24.8405 16.8566 23.4707 16.8566C21.4439 16.8566 20.3299 16.1997 20.3592 14.5447C25.8972 14.6873 28.7807 13.6879 29.7228 11.2334C30.6649 8.7496 29.0379 6.2085 25.1829 6.2085C21.0721 6.2085 18.046 9.14935 16.932 12.3181C15.7621 15.6867 16.5043 19.9973 22.2701 19.9973H22.2714ZM5.72293 19.9973C9.52059 19.9973 11.6806 18.2557 14.1924 12.9177C15.5622 9.97684 16.7335 7.09329 18.0753 4.23905L19.6743 4.7534C20.1021 4.89598 20.3313 4.6388 20.1314 4.23905L18.1899 0.270827C18.0473 -0.0143302 17.7329 -0.0436454 17.533 0.0429678L12.708 1.86984C12.3082 2.01242 12.3362 2.38419 12.7359 2.49745L14.1631 2.95451C12.9931 5.6102 11.5367 9.60641 10.3654 12.1182C9.05155 14.9165 8.39595 16.8859 6.16933 16.8859C3.9427 16.8859 3.57093 15.1443 4.51301 12.6605C5.59768 9.77697 7.42455 8.92016 9.5086 9.51979C10.0802 8.72028 10.508 7.52103 10.6785 6.43636C10.0789 6.26447 9.36469 6.2085 8.76639 6.2085C5.3978 6.2085 2.05719 7.95009 0.687373 11.6038C-1.0822 16.3143 0.554122 19.9973 5.7216 19.9973H5.72293Z" fill="currentColor"/></symbol>
	<symbol id="Discord" xmlns="http://www.w3.org/2000/svg" viewBox="0 0 127.14 96.36" stroke="currentColor" fill="none"><g id="_2" data-name=" 2"><g id="Discord_Logos" data-name="Discord Logos"><g id="Discord_Logo_-_Large_-_White" data-name="Discord Logo - Large - White"><path class="cls-1" d="M107.7,8.07A105.15,105.15,0,0,0,81.47,0a72.06,72.06,0,0,0-3.36,6.83A97.68,97.68,0,0,0,49,6.83,72.37,72.37,0,0,0,45.64,0,105.89,105.89,0,0,0,19.39,8.09C2.79,32.65-1.71,56.6.54,80.21h0A105.73,105.73,0,0,0,32.71,96.36,77.7,77.7,0,0,0,39.6,85.25a68.42,68.42,0,0,1-10.85-5.18c.91-.66,1.8-1.34,2.66-2a75.57,75.57,0,0,0,64.32,0c.87.71,1.76,1.39,2.66,2a68.68,68.68,0,0,1-10.87,5.19,77,77,0,0,0,6.89,11.1A105.25,105.25,0,0,0,126.6,80.22h0C129.24,52.84,122.09,29.11,107.7,8.07ZM42.45,65.69C36.18,65.69,31,60,31,53s5-12.74,11.43-12.74S54,46,53.89,53,48.84,65.69,42.45,65.69Zm42.24,0C78.41,65.69,73.25,60,73.25,53s5-12.74,11.44-12.74S96.23,46,96.12,53,91.08,65.69,84.69,65.69Z"/></g></g></g></symbol>
	<symbol id="FilterList" xmlns="http://www.w3.org/2000/svg" viewBox="0 0 16 16" fill="none"><path d="M6.66667 12H9.33333V10.6667H6.66667V12ZM2 4V5.33333H14V4H2ZM4 8.66667H12V7.33333H4V8.66667Z" fill="currentColor"/></symbol>
	<symbol id="ChevronUp" xmlns="http://www.w3.org/2000/svg" viewBox="0 0 16 16" stroke="currentColor" fill="none"><path fill-rule="evenodd" clip-rule="evenodd" d="M7.52851 5.52827C7.78886 5.26792 8.21097 5.26792 8.47132 5.52827L12.4713 9.52827C12.7317 9.78862 12.7317 10.2107 12.4713 10.4711C12.211 10.7314 11.7889 10.7314 11.5285 10.4711L7.99992 6.94248L4.47132 10.4711C4.21097 10.7314 3.78886 10.7314 3.52851 10.4711C3.26816 10.2107 3.26816 9.78862 3.52851 9.52827L7.52851 5.52827Z" fill="black"/></symbol>
	<symbol id="Trash" width="20" height="20" viewBox="0 0 20 20" fill="none" xmlns="http://www.w3.org/2000/svg"><path fill-rule="evenodd" clip-rule="evenodd" d="M7.15482 2.15483C7.46738 1.84227 7.89131 1.66667 8.33333 1.66667H11.6667C12.1087 1.66667 12.5326 1.84227 12.8452 2.15483C13.1577 2.46739 13.3333 2.89131 13.3333 3.33334V5H15.8236C15.8295 4.99994 15.8353 4.99994 15.8412 5H16.6667C17.1269 5 17.5 5.3731 17.5 5.83334C17.5 6.29357 17.1269 6.66667 16.6667 6.66667H16.6001L15.833 15.8715C15.8231 16.5207 15.5609 17.1413 15.1011 17.6011C14.6323 18.0699 13.9964 18.3333 13.3333 18.3333H6.66667C6.00362 18.3333 5.36774 18.0699 4.8989 17.6011C4.43906 17.1413 4.17685 16.5207 4.16696 15.8715L3.39989 6.66667H3.33333C2.8731 6.66667 2.5 6.29357 2.5 5.83334C2.5 5.3731 2.8731 5 3.33333 5H4.15878C4.16467 4.99994 4.17055 4.99994 4.17641 5H6.66667V3.33334C6.66667 2.89131 6.84226 2.46739 7.15482 2.15483ZM5.07233 6.66667L5.83045 15.7641C5.83237 15.7871 5.83333 15.8102 5.83333 15.8333C5.83333 16.0543 5.92113 16.2663 6.07741 16.4226C6.23369 16.5789 6.44565 16.6667 6.66667 16.6667H13.3333C13.5543 16.6667 13.7663 16.5789 13.9226 16.4226C14.0789 16.2663 14.1667 16.0543 14.1667 15.8333C14.1667 15.8102 14.1676 15.7871 14.1695 15.7641L14.9277 6.66667H5.07233ZM11.6667 5H8.33333V3.33334H11.6667V5ZM8.33333 8.33334C8.79357 8.33334 9.16667 8.70643 9.16667 9.16667V14.1667C9.16667 14.6269 8.79357 15 8.33333 15C7.8731 15 7.5 14.6269 7.5 14.1667V9.16667C7.5 8.70643 7.8731 8.33334 8.33333 8.33334ZM11.6667 8.33334C12.1269 8.33334 12.5 8.70643 12.5 9.16667V14.1667C12.5 14.6269 12.1269 15 11.6667 15C11.2064 15 10.8333 14.6269 10.8333 14.1667V9.16667C10.8333 8.70643 11.2064 8.33334 11.6667 8.33334Z" fill="currentColor"/></symbol>
	<symbol id="WhatsApp"  xmlns="http://www.w3.org/2000/svg" viewBox="0 0 18 18" fill="none" ><path fill-rule="evenodd" clip-rule="evenodd" d="M13.333 3.94275C12.0977 2.88909 10.5203 2.32246 8.89688 2.34921C7.27345 2.37596 5.71558 2.99425 4.51564 4.08804C3.3157 5.18184 2.55617 6.67594 2.3796 8.28996C2.20302 9.90398 2.62153 11.527 3.5566 12.8543C3.72398 13.0919 3.75547 13.3996 3.63972 13.6661L2.88341 15.408L5.56246 14.9305C5.73665 14.8995 5.9162 14.9247 6.07512 15.0025C7.53336 15.7165 9.20204 15.8737 10.768 15.4448C12.334 15.0158 13.6896 14.0301 14.5804 12.6727C15.4712 11.3152 15.836 9.67933 15.6064 8.07201C15.3767 6.46468 14.5684 4.99641 13.333 3.94275ZM8.86942 0.682773C10.8987 0.649334 12.8704 1.35761 14.4146 2.67469C15.9588 3.99177 16.9692 5.8271 17.2563 7.83626C17.5433 9.84542 17.0873 11.8903 15.9738 13.5871C14.8603 15.2839 13.1658 16.516 11.2083 17.0522C9.34061 17.5638 7.35601 17.4083 5.59455 16.6177L1.64654 17.3213C1.34428 17.3752 1.03687 17.2585 0.846507 17.0176C0.656144 16.7767 0.613663 16.4506 0.735949 16.169L1.93091 13.417C0.947723 11.8367 0.519412 9.96793 0.722814 8.1087C0.943534 6.09118 1.89294 4.22355 3.39287 2.85631C4.8928 1.48907 6.84013 0.716212 8.86942 0.682773ZM6.03312 5.61685C6.26754 5.38243 6.58548 5.25073 6.917 5.25073C7.24852 5.25073 7.56646 5.38243 7.80088 5.61685C8.03531 5.85127 8.167 6.16921 8.167 6.50073V7.33407C8.167 7.66558 8.03531 7.98353 7.80088 8.21795C7.71659 8.30224 7.62149 8.37326 7.51885 8.42964C7.68255 8.89999 7.95113 9.33224 8.30998 9.69109C8.66883 10.0499 9.10107 10.3185 9.57143 10.4822C9.62781 10.3796 9.69882 10.2845 9.78312 10.2002C10.0175 9.96576 10.3355 9.83407 10.667 9.83407H11.5003C11.8319 9.83407 12.1498 9.96576 12.3842 10.2002C12.6186 10.4346 12.7503 10.7525 12.7503 11.0841C12.7503 11.4156 12.6186 11.7335 12.3842 11.9679C12.1498 12.2024 11.8319 12.3341 11.5003 12.3341H10.667C9.34092 12.3341 8.06915 11.8073 7.13147 10.8696C6.19378 9.93192 5.667 8.66015 5.667 7.33407V6.50073C5.667 6.16921 5.79869 5.85127 6.03312 5.61685Z" fill="currentColor"/></symbol>
	<symbol id="ArrowsPointingOut" xmlns="http://www.w3.org/2000/svg" fill="none" viewBox="0 0 24 24"><path stroke-linecap="round" stroke-linejoin="round" d="M3.75 3.75v4.5m0-4.5h4.5m-4.5 0L9 9M3.75 20.25v-4.5m0 4.5h4.5m-4.5 0L9 15M20.25 3.75h-4.5m4.5 0v4.5m0-4.5L15 9m5.25 11.25h-4.5m4.5 0v-4.5m0 4.5L15 15" /></symbol>
	<symbol id="ArrowLeft" xmlns="http://www.w3.org/2000/svg" viewbox="0 0 8 17" fill="none"><path d="M12 4.0271L10.59 5.4371L16.17 11.0271H4V13.0271H16.17L10.59 18.6171L12 20.0271L20 12.0271L12 4.0271Z" fill="currentColor"/></symbol>
	<symbol id="ArrowRight" xmlns="http://www.w3.org/2000/svg" viewbox="0 0 8 17" fill="none"><path d="M20 11.0271H7.83L13.42 5.4371L12 4.0271L4 12.0271L12 20.0271L13.41 18.6171L7.83 13.0271H20V11.0271Z" fill="currentColor"/></symbol>
</svg>
